<?xml version="1.0" encoding="UTF-8"?>
<svg id="Layer_1" xmlns="http://www.w3.org/2000/svg" xmlns:xlink="http://www.w3.org/1999/xlink" version="1.1" viewBox="0 0 1024 1024">
  <!-- Generator: Adobe Illustrator 29.5.1, SVG Export Plug-In . SVG Version: 2.1.0 Build 141)  -->
  <defs>
    <style>
      .st0 {
        fill: url(#linear-gradient);
      }

      .st1 {
        fill: #fff;
        opacity: .6;
      }
    </style>
    <linearGradient id="linear-gradient" x1="0" y1="512" x2="1024" y2="512" gradientUnits="userSpaceOnUse">
      <stop offset="0" stop-color="#3f6cff"/>
      <stop offset="1" stop-color="#55c3ff"/>
    </linearGradient>
  </defs>
  <g id="Layer_2">
    <rect class="st0" x="0" width="1024" height="1024" rx="256" ry="256"/>
  </g>
  <path class="st1" d="M844.6,888H179.4c-31.8,0-60.3-16.4-76.2-44-15.9-27.6-15.9-60.4,0-88L435.8,180c15.9-27.6,44.4-44,76.2-44s60.3,16.4,76.2,44l332.6,576c15.9,27.6,15.9,60.4,0,88-15.9,27.6-44.4,44-76.2,44ZM477.4,204L144.8,780c-7.2,12.5-7.2,27.5,0,40,7.2,12.5,20.2,20,34.6,20h665.1c14.5,0,27.4-7.5,34.6-20s7.2-27.5,0-40L546.6,204c-7.2-12.5-20.2-20-34.6-20s-27.4,7.5-34.6,20h0ZM662,583.7c5.6-.4,10-5.2,10-10.8v-25.9c0-5.7-4.4-10.4-10-10.8l-34.3-2.7c-2.2-.2-4.1-1.5-4.9-3.6l-11.3-27.2c-.8-2-.5-4.3.9-6l22.3-26.1c3.7-4.3,3.4-10.7-.6-14.7l-18.3-18.3c-4-4-10.4-4.3-14.7-.6l-26.1,22.3c-1.7,1.4-4,1.8-6,.9l-27.2-11.3c-2-.8-3.4-2.7-3.6-4.9l-2.7-34.3c-.4-5.7-5.1-10-10.8-10h-25.9c-5.7,0-10.4,4.4-10.8,10l-2.7,34.3c-.2,2.2-1.5,4.1-3.6,4.9l-27.2,11.3c-2,.8-4.3.5-6-.9l-26.1-22.3c-4.3-3.7-10.7-3.4-14.7.6l-18.3,18.3c-4,4-4.2,10.4-.6,14.7l22.3,26.1c1.4,1.7,1.8,4,.9,6l-11.3,27.2c-.8,2-2.7,3.4-4.9,3.6l-34.3,2.7c-5.6.4-10,5.2-10,10.8v25.8c0,5.7,4.4,10.4,10,10.8l34.3,2.7c2.2.2,4.1,1.6,4.9,3.6l11.3,27.2c.8,2,.5,4.3-.9,6l-22.3,26.1c-3.7,4.3-3.4,10.7.6,14.7l18.3,18.3c4,4,10.4,4.2,14.7.6l26.1-22.3c1.7-1.4,4-1.8,6-.9l27.2,11.3c2,.8,3.4,2.7,3.6,4.9l2.7,34.3c.4,5.6,5.1,10,10.8,10h25.9c5.7,0,10.4-4.4,10.8-10l2.7-34.3c.2-2.2,1.6-4.1,3.6-4.9l27.2-11.3c2-.8,4.3-.5,6,.9l26.1,22.3c4.3,3.7,10.7,3.4,14.7-.6l18.3-18.3c4-4,4.2-10.4.6-14.7l-22.3-26.1c-1.4-1.7-1.8-4-.9-6l11.3-27.2c.8-2,2.7-3.4,4.9-3.6l34.3-2.7ZM512,614.1c-14.4,0-28-5.6-38.2-15.8-10.2-10.2-15.8-23.8-15.8-38.3s5.6-28,15.8-38.2c10.2-10.2,23.8-15.8,38.2-15.8s28,5.6,38.2,15.8c10.2,10.2,15.8,23.8,15.8,38.2s-5.6,28-15.8,38.3c-10.2,10.2-23.8,15.8-38.2,15.8Z"/>
</svg>